# xmcd CD database file
#
# Track frame offsets:
#	150
#	8899
#	21748
#	36333
#	48324
#	60631
#	71855
#	84162
#	96381
#	109506
#	123412
#	140071
#
# Disc length: 2038 seconds
#
# Revision: 0
# Processed by: cddbd v1.5.2PL0 Copyright (c) Steve Scherf et al.
# Submitted via: CDex 1.70beta2
#
DISCID=aa07f40c
DTITLE=Yakabuski, John - Cdn. OVM - To Your Health
DYEAR=1900
DGENRE=Country
TTITLE0=Welcome To My World
TTITLE1=Precious Lord Take My Hand
TTITLE2=Heartaches By the Number
TTITLE3=I Love You More and More
TTITLE4=My Renfrew Country Home
TTITLE5=I'll Never Find Another You
TTITLE6=Ring of Fire
TTITLE7=She Thinks I Still Care
TTITLE8=Step Aside
TTITLE9=There Goes My Everything
TTITLE10=Teh Old Rugged Cross
TTITLE11=When the Snow Is On the Roses
EXTD=
EXTT0=
EXTT1=
EXTT2=
EXTT3=
EXTT4=
EXTT5=
EXTT6=
EXTT7=
EXTT8=
EXTT9=
EXTT10=
EXTT11=
PLAYORDER=
